<?xml version="1.0" standalone="no"?>
<!DOCTYPE svg PUBLIC "-//W3C//DTD SVG 20010904//EN"
 "http://www.w3.org/TR/2001/REC-SVG-20010904/DTD/svg10.dtd">
<svg version="1.0" xmlns="http://www.w3.org/2000/svg"
 width="220.000000pt" height="220.000000pt" viewBox="0 0 220.000000 220.000000"
 preserveAspectRatio="xMidYMid meet">
<metadata>
Created by potrace 1.14, written by Peter Selinger 2001-2017
</metadata>
<g transform="translate(0.000000,220.000000) scale(0.100000,-0.100000)"
fill="#000000" stroke="none">
<path d="M115 1938 c-26 -15 -39 -29 -53 -55 -9 -16 -12 -228 -12 -793 0 -670
2 -775 15 -800 33 -63 -21 -60 1047 -60 1053 1 1000 -2 1039 56 18 28 19 55
19 804 0 749 -1 776 -19 804 -11 16 -30 35 -43 42 -32 18 -1962 20 -1993 2z
m1978 -29 c14 -6 30 -22 36 -36 16 -34 16 -1532 0 -1566 -6 -14 -22 -30 -36
-36 -17 -8 -303 -11 -991 -11 -964 1 -967 1 -992 21 l-25 21 -3 780 -2 779 29
30 29 29 966 0 c686 0 972 -3 989 -11z"/>
<path d="M305 1108 c0 -293 3 -535 7 -538 4 -3 94 -5 200 -5 179 1 198 3 256
26 115 44 189 137 199 252 12 136 -58 249 -174 280 -51 13 -53 20 -14 37 99
40 159 181 129 300 -14 55 -76 122 -140 151 -49 22 -68 24 -258 27 l-205 4 0
-534z m355 407 c77 -17 120 -71 120 -152 0 -71 -33 -122 -97 -155 -47 -23 -63
-26 -150 -25 l-98 2 -1 160 c0 88 1 165 3 171 4 12 167 11 223 -1z m41 -468
c87 -26 133 -86 131 -174 -1 -70 -33 -127 -92 -161 -41 -25 -56 -27 -175 -30
l-130 -4 1 194 c1 106 2 193 3 194 12 8 221 -8 262 -19z"/>
<path d="M1271 1367 c-57 -149 -128 -335 -158 -412 -94 -246 -143 -376 -143
-384 0 -11 128 -7 138 4 5 6 30 72 56 147 26 75 53 138 59 140 7 3 109 4 227
4 l215 -1 55 -145 c30 -80 58 -148 62 -151 5 -3 37 -5 71 -4 48 1 61 5 59 16
-2 8 -94 249 -204 537 l-201 522 -66 0 -66 0 -104 -273z m179 98 c0 -9 38
-119 85 -246 47 -127 85 -233 85 -235 0 -2 -81 -4 -180 -4 -99 0 -180 2 -180
5 0 2 14 42 31 87 17 46 32 88 33 93 2 6 6 17 9 25 17 44 77 211 89 248 13 41
28 56 28 27z"/>
</g>
</svg>
